# xmcd
#
# Track frame offsets: 
#        150
#        10690
#        23465
#        35892
#        45320
#        58262
#        71200
#        83797
#        93765
#        105687
#        116990
#        126902
#        138482
#        148802
#        160195
#        169567
#        183935
#        194767
#        203910
#        214462
#        228485
#        238357
#        247772
#        257527
#        270090
#
# Disc length: 3734 seconds
#
# Revision: 2
# Processed by: cddbd v1.5.2PL0 Copyright (c) Steve Scherf et al.
# Submitted via: ExactAudioCopy v0.99pb5
#
DISCID=680e9419
DTITLE=Jim Reeves - Greatest Hits
DYEAR=2000
DGENRE=Country
TTITLE0=He'll Have to Go
TTITLE1=Four Walls
TTITLE2=I Love You Because
TTITLE3=Billy Bayou
TTITLE4=Have I Told You Lately That I Love You?
TTITLE5=Distant Drums
TTITLE6=This World Is Not My Home
TTITLE7=I Won't Come In While He Is There
TTITLE8=Am I Losing You
TTITLE9=Anna Marie
TTITLE10=Blue Boy
TTITLE11=I Missed Me
TTITLE12=Losing Your Love
TTITLE13=Adios Amigo
TTITLE14=I'm Gonna Change Everything
TTITLE15=Guilty
TTITLE16=Welcome to My World
TTITLE17=I Won't Forget You
TTITLE18=You're the Only Good Thing
TTITLE19=This Is It
TTITLE20=When Two Worlds Collide
TTITLE21=There's A Heartache Following Me
TTITLE22=It Hurts So Much to See You Go
TTITLE23=Not Until the Next Time
TTITLE24=Is It Really Over?
EXTD=
EXTT0=
EXTT1=
EXTT2=
EXTT3=
EXTT4=
EXTT5=
EXTT6=
EXTT7=
EXTT8=
EXTT9=
EXTT10=
EXTT11=
EXTT12=
EXTT13=
EXTT14=
EXTT15=
EXTT16=
EXTT17=
EXTT18=
EXTT19=
EXTT20=
EXTT21=
EXTT22=
EXTT23=
EXTT24=
PLAYORDER=
